' Generated by UML Generator
' Encoded: jLhTRkMs4RxtK-Zok3bUzDf0WxZUpJP0dHYnOnG8Sa5Bj4rKebHAycusZTyfpz0Nwmn_PqZgx36slTazck6Cveyp7ob_Co_2BElGdyp_L7eIHWnDsujvlbWMe-xNHNxNZlf6VPBDdq-UL2URLfcsboSdTbLpCKtDRoTDyzLle6XHxU_D89JU2VCudpSte48__lpBwNdpFAhkvFSWTQaMOSNEz3hWmtcZz8BF3x9z4exozx4L_LknIAG_ZOQIRzLWoOEOsn6fL-u7qYO3J2FkvAVpvduSUocqrGp6z-gJQDMe6KE2vTtebB-Blv6pg6cyaUPPWSnvSqkUaFii5md-2OFCk_I0l3CC2QhPKGVtJSszVLDnRj_ahksRYcFxfcuzlAdcxhxPTcdVR3bqYiuyokLxvyhkD6JhgpaHgPyXtqxis-0p2jAaedXYraB35VtDXodgyLM0UYAl4akknOSJbQIYGHM1aGUUYAlvEkO05QGgGWM4LqaLjoAb2lMmiaDLX5rFCDT6yuZwib95ZMp9TXLmlQG8K2qlSjHA5soM3utVjwGiomWoRhM2YR9bTFq5rRXVgS5SIRrYc6RNPHuXYAC1gomDAQ8VH2j1xvtFigLAlHZHGQ1lMg6rD74hHtsx5lyDclPDgSVkbW7MNtI3qaw8M2tQPHNebe5axgPnzfs1wINhUocDhGFLXRqLwWGIzDuwPdCJNCCuUZ9tEoj0vweDNdJMbfvdvB4eclWT2R2tFZJEjL_KCCQcRaFebkyMCOZ__35UYOzXHMWlCLJuu-TVl3aiwex37Vd9leit9KyZPh0YV3TCowzPzK5fhdsV4KNNxLhtMg80oXAgUwlZpLAOzecaovjbvDH3gP2KwrK-ZuNsqNGIzWsjcSd86T8Xp4zQr9gjhtww4jcsjxg-odlgndgO-L9tgeDu7nIw3aAy6MvffJr2ZyEzaK09ovaSjhgtQfv6hUvxMHZX1YKRaZLz97-7MiJbg6Se48z3L1UUOzLMiOMS8MCF_IWMrqMM5IsA13V4eYO6OJeb7lKu0qWQYTDdiCjWJoY85oEBMS7IaI6LpoCE_-PTvauLJIHNi8qHHm9CATtODnKd05IKBe3Ap87Fuullej5yDnDwvjV_RhA3-3K416L3Ckr8Hng959Uui57BPJoLXRI6Y8YlTLGK5cnbWojzcpB3T-FCUPKCPc0YPRDGH7cLh1D55oxzvOmFZBm-_h_80munlX_HnZf0gnR6MYHrgnZFo4SW6s6E3ruKEJvCdmKnFkr-pdguSOapFN0Im0aGv5Me9gZPjU4NLRvlDbLdG2VgoS0BLEhenhfV4JUFSyM15-ACsqEUMNEOLyfxPf_LHfnFQ2Yks7QeH3Wy-YH2n9aDj1FZiO5u21v0uArlnqaIO40sVFZrPHYcLE9nJ48gnqAGr8qF891_l0f-X6WT2K6YuEq8QsahBTT4tM4C73GxhZuUjcmXlihUzaYNxfNma11lRKUcLL-2VbDhSQ48sESg34PVmeWldzIKdgt_59uOyKdGPpbFibLiIJlsUFX8X4S9pGSCUc__jtg5FO0oc3Iifg2XFJay6p-0blFcXm-iemK8G1-uVxYzadS1GYRSGZt3wnNc5vpJg5VO7QbFe2tpoBsDOp5gUS8-1BrGw5DtWXV1zywXyc86YTJRJCnwNinuJ-PnuP8_GemAEKkaqSjlF6ma2x50poBDXIynweMeexACvBC1iu9oiURSGB1adhiiDi9VfUJGp37oD6T0T3LrOSV8AxnCPXK6KqPUL5o5hImK3fi3nHsHrHw1Hw9lrrwOTvteo5izQgBjodF4rAjMl9LpkmQWI6QEaKh3KCj4ZyKyOHwxxXGlbkSs8fZcBusM7yBJxkPNm6_36wLFjwzstDI_h64SXeSYJ2ZL12nK1KeS3P7DxBq-czTxrF_NTVxNAZi6DQEB2I_bNSaF5-m_EjmVFClM0naEOiZXXsbs0paloxW42kUcpUw3Kl0jawGWFmdPODNGLs1LRiegE8uLJ04BypK7abgCF5lo_gD3CSuc28RHx00-b2I8Mb-CEAtO86pL2dk87V1bp_Kg_YpHc5a93Y3z7au_yuh8JCOZVaPWvhh9HOp5AqTgAXpZaw6eJT4dPkJf5m-GQsTh8HhecNFvERyk7EZ38U5B34evIIoL1QmSG5g9wWX2UXRSJDW6kfHrP9w6x2mk-_8C3ZIIgZmsggy41eWqePbCI2wVDucSPV-uJdx7s_WGprlaEcq9PvvqRehzT_kYc9xr_Ey8dYElU5-EdF6yHHosfJ71M8TSs7VIQDIHF9wi3bmfnMD11joypljrReLXUoKkZ5aYhTojtqPBoIwtiWR-sAljE00uS_YavTQw5gIw7nnyo4zFyIIvWL4_TzQzsevYvInwxE4tbg8ToVPcfXlz29XM71sq3y-YTnT8tRZUzp9M91EkpcNIF-N3I3imVyk-oTvnUkYKY9TZsXO8749tvIVq7g-KfFEcKqQsxZiPdLPwSTKSTWBTQ5x-bGuLBphTRWFY7eFMBkxl2PfhQMPmQ6i2gtnciZT7ixsMLvbzQ5pPenSd7MfgFyfMJkW_58HtPLapb20_BbBFMENE3i39FFHCoIiJmDu6nzFmBjOWRzVQU7HKfk3OLfwkGfpFhlk8NcLGfvKTd2AkpVWWqIZ1W8xKbygiZpX5o3SDr_MBkvPZur6p192DjOFbdtnKjqRux-h7VrY6-4hp05qCme6usqRY1MS063MuwztRfEKbz4JToOzPFtm9_J0n_TV0TrLL6nTCBxNxlfTATmJhxL_S_EdiB4wKIA1Nw-cpkUMuJyePCSBxH7_pvcltwVSkFF_xQn-bG49HkoH-TcF6K69XKBo4TKR5Cq65oOsBF6jWkB6zetHgA5CLbuUhCYIwypGxevQlvInkRkIXHS7xEq8bzZ0zOIqVPMTdiDwtn9Cm4HYHDop6ehkQCRwHkbk7_hy
' URL: http://www.plantuml.com/plantuml/uml/jLhTRkMs4RxtK-Zok3bUzDf0WxZUpJP0dHYnOnG8Sa5Bj4rKebHAycusZTyfpz0Nwmn_PqZgx36slTazck6Cveyp7ob_Co_2BElGdyp_L7eIHWnDsujvlbWMe-xNHNxNZlf6VPBDdq-UL2URLfcsboSdTbLpCKtDRoTDyzLle6XHxU_D89JU2VCudpSte48__lpBwNdpFAhkvFSWTQaMOSNEz3hWmtcZz8BF3x9z4exozx4L_LknIAG_ZOQIRzLWoOEOsn6fL-u7qYO3J2FkvAVpvduSUocqrGp6z-gJQDMe6KE2vTtebB-Blv6pg6cyaUPPWSnvSqkUaFii5md-2OFCk_I0l3CC2QhPKGVtJSszVLDnRj_ahksRYcFxfcuzlAdcxhxPTcdVR3bqYiuyokLxvyhkD6JhgpaHgPyXtqxis-0p2jAaedXYraB35VtDXodgyLM0UYAl4akknOSJbQIYGHM1aGUUYAlvEkO05QGgGWM4LqaLjoAb2lMmiaDLX5rFCDT6yuZwib95ZMp9TXLmlQG8K2qlSjHA5soM3utVjwGiomWoRhM2YR9bTFq5rRXVgS5SIRrYc6RNPHuXYAC1gomDAQ8VH2j1xvtFigLAlHZHGQ1lMg6rD74hHtsx5lyDclPDgSVkbW7MNtI3qaw8M2tQPHNebe5axgPnzfs1wINhUocDhGFLXRqLwWGIzDuwPdCJNCCuUZ9tEoj0vweDNdJMbfvdvB4eclWT2R2tFZJEjL_KCCQcRaFebkyMCOZ__35UYOzXHMWlCLJuu-TVl3aiwex37Vd9leit9KyZPh0YV3TCowzPzK5fhdsV4KNNxLhtMg80oXAgUwlZpLAOzecaovjbvDH3gP2KwrK-ZuNsqNGIzWsjcSd86T8Xp4zQr9gjhtww4jcsjxg-odlgndgO-L9tgeDu7nIw3aAy6MvffJr2ZyEzaK09ovaSjhgtQfv6hUvxMHZX1YKRaZLz97-7MiJbg6Se48z3L1UUOzLMiOMS8MCF_IWMrqMM5IsA13V4eYO6OJeb7lKu0qWQYTDdiCjWJoY85oEBMS7IaI6LpoCE_-PTvauLJIHNi8qHHm9CATtODnKd05IKBe3Ap87Fuullej5yDnDwvjV_RhA3-3K416L3Ckr8Hng959Uui57BPJoLXRI6Y8YlTLGK5cnbWojzcpB3T-FCUPKCPc0YPRDGH7cLh1D55oxzvOmFZBm-_h_80munlX_HnZf0gnR6MYHrgnZFo4SW6s6E3ruKEJvCdmKnFkr-pdguSOapFN0Im0aGv5Me9gZPjU4NLRvlDbLdG2VgoS0BLEhenhfV4JUFSyM15-ACsqEUMNEOLyfxPf_LHfnFQ2Yks7QeH3Wy-YH2n9aDj1FZiO5u21v0uArlnqaIO40sVFZrPHYcLE9nJ48gnqAGr8qF891_l0f-X6WT2K6YuEq8QsahBTT4tM4C73GxhZuUjcmXlihUzaYNxfNma11lRKUcLL-2VbDhSQ48sESg34PVmeWldzIKdgt_59uOyKdGPpbFibLiIJlsUFX8X4S9pGSCUc__jtg5FO0oc3Iifg2XFJay6p-0blFcXm-iemK8G1-uVxYzadS1GYRSGZt3wnNc5vpJg5VO7QbFe2tpoBsDOp5gUS8-1BrGw5DtWXV1zywXyc86YTJRJCnwNinuJ-PnuP8_GemAEKkaqSjlF6ma2x50poBDXIynweMeexACvBC1iu9oiURSGB1adhiiDi9VfUJGp37oD6T0T3LrOSV8AxnCPXK6KqPUL5o5hImK3fi3nHsHrHw1Hw9lrrwOTvteo5izQgBjodF4rAjMl9LpkmQWI6QEaKh3KCj4ZyKyOHwxxXGlbkSs8fZcBusM7yBJxkPNm6_36wLFjwzstDI_h64SXeSYJ2ZL12nK1KeS3P7DxBq-czTxrF_NTVxNAZi6DQEB2I_bNSaF5-m_EjmVFClM0naEOiZXXsbs0paloxW42kUcpUw3Kl0jawGWFmdPODNGLs1LRiegE8uLJ04BypK7abgCF5lo_gD3CSuc28RHx00-b2I8Mb-CEAtO86pL2dk87V1bp_Kg_YpHc5a93Y3z7au_yuh8JCOZVaPWvhh9HOp5AqTgAXpZaw6eJT4dPkJf5m-GQsTh8HhecNFvERyk7EZ38U5B34evIIoL1QmSG5g9wWX2UXRSJDW6kfHrP9w6x2mk-_8C3ZIIgZmsggy41eWqePbCI2wVDucSPV-uJdx7s_WGprlaEcq9PvvqRehzT_kYc9xr_Ey8dYElU5-EdF6yHHosfJ71M8TSs7VIQDIHF9wi3bmfnMD11joypljrReLXUoKkZ5aYhTojtqPBoIwtiWR-sAljE00uS_YavTQw5gIw7nnyo4zFyIIvWL4_TzQzsevYvInwxE4tbg8ToVPcfXlz29XM71sq3y-YTnT8tRZUzp9M91EkpcNIF-N3I3imVyk-oTvnUkYKY9TZsXO8749tvIVq7g-KfFEcKqQsxZiPdLPwSTKSTWBTQ5x-bGuLBphTRWFY7eFMBkxl2PfhQMPmQ6i2gtnciZT7ixsMLvbzQ5pPenSd7MfgFyfMJkW_58HtPLapb20_BbBFMENE3i39FFHCoIiJmDu6nzFmBjOWRzVQU7HKfk3OLfwkGfpFhlk8NcLGfvKTd2AkpVWWqIZ1W8xKbygiZpX5o3SDr_MBkvPZur6p192DjOFbdtnKjqRux-h7VrY6-4hp05qCme6usqRY1MS063MuwztRfEKbz4JToOzPFtm9_J0n_TV0TrLL6nTCBxNxlfTATmJhxL_S_EdiB4wKIA1Nw-cpkUMuJyePCSBxH7_pvcltwVSkFF_xQn-bG49HkoH-TcF6K69XKBo4TKR5Cq65oOsBF6jWkB6zetHgA5CLbuUhCYIwypGxevQlvInkRkIXHS7xEq8bzZ0zOIqVPMTdiDwtn9Cm4HYHDop6ehkQCRwHkbk7_hy
' Generated on: 2026-05-25T15:34:30.985326700

@startuml
skinparam classAttributeIconSize 0
hide circle

class App {
  +{static} main(args: String[]): void
}

class Cita {
  -numCita: int
  -fechaCita: LocalDate
  -horaCita: LocalTime
  -mascota: Mascota
  -primeraVez: boolean
  -fidelizacion: boolean
  -estadoCita: EstadoCita
  -tipoServicio: TipoServicio
  -veterinario: Veterinario
  --
  +Cita(numCita: int, fechaCita: LocalDate, horaCita: LocalTime, mascota: Mascota, primeraVez: boolean, estadoCita: EstadoCita, fidelizacion: boolean, tipoServicio: TipoServicio, veterinario: Veterinario)
  +getNumCita(): int
  +setNumCita(numCita: int): void
  +getFechaCita(): LocalDate
  +setFechaCita(fechaCita: LocalDate): void
  +getHoraCita(): LocalTime
  +setHoraCita(horaCita: LocalTime): void
  +getMascota(): Mascota
  +setMascota(mascota: Mascota): void
  +isPrimeraVez(): boolean
  +setPrimeraVez(primeraVez: boolean): void
  +getEstadoCita(): EstadoCita
  +setEstadoCita(estadoCita: EstadoCita): void
  +getTipoServicio(): TipoServicio
  +setTipoServicio(tipoServicio: TipoServicio): void
  +getVeterinario(): Veterinario
  +setVeterinario(veterinario: Veterinario): void
  +isFidelizacion(): boolean
  +setFidelizacion(fidelizacion: boolean): void
  +toString(): String
}

class MenuCitas {
  -gestor: VCitas
  -almacen: VMascotas
  -entrada: Scanner
  --
  +MenuCitas(citas: VCitas, almacen: VMascotas)
  +menuAdminCitas(): void
  +actualizarEst(pos: int, citas: VCitas): void
  +leerCita(id: int): Cita
  +getGestor(): VCitas
  +setGestor(gestor: VCitas): void
  +getEntrada(): Scanner
  +setEntrada(entrada: Scanner): void
}

class VCitas {
  -citas: Cita
  -ultimo: int
  --
  +VCitas(tamañoMaximo: int)
  +getCitas(): Cita[]
  +setCitas(citas: Cita[]): void
  +getUltimo(): int
  +setUltimo(ultimo: int): void
  +isEmpty(): boolean
  +isFull(): boolean
  +add(c: Cita): void
  +delete(numCita: int): void
  +search(id: int): int
  +replace(pos: int, nuevo: Cita): void
  +ordenar(): void
  +presentarUnaCita(numCita: int): String
  +presentarCitaFecha(fecha: LocalDate): String
  +presentarCitasAtendidas(fecha: LocalDate): String
  +PresentarPrimeraVez(): String
  +presentarCitasVeterinario(nombreVet: String): String
  +estaDisponible(fecha: LocalDate, hora: LocalTime, nombreVet: String): boolean
  +toString(): String
}

class Consulta {
  -idConsulta: int
  -mascota: Mascota
  -peso: float
  -altura: float
  -fechaConsulta: LocalDate
  -diagnostico: String
  -tratamiento: String
  -asistio: boolean
  -veterinario: Veterinario
  --
  +Consulta(idConsulta: int, mascota: Mascota, peso: float, altura: float, fechaConsulta: LocalDate, diagnostico: String, tratamiento: String, asistio: boolean, veterinario: Veterinario)
  +getIdConsulta(): int
  +setIdConsulta(idConsulta: int): void
  +getMascota(): Mascota
  +setMascota(mascota: Mascota): void
  +getPeso(): float
  +setPeso(peso: float): void
  +getAltura(): float
  +setAltura(altura: float): void
  +getFechaConsulta(): LocalDate
  +setFechaConsulta(fechaConsulta: LocalDate): void
  +getDiagnostico(): String
  +setDiagnostico(diagnostico: String): void
  +getTratamiento(): String
  +setTratamiento(tratamiento: String): void
  +Asistio(): boolean
  +setAsistio(asistio: boolean): void
  +getVeterinario(): Veterinario
  +setVeterinario(veterinario: Veterinario): void
  +contarCita(): void
  +marcarAsistencia(): void
  +registrarDiagnostico(diagnostico: String): void
  +registrarTratamiento(tratamiento: String): void
  +toString(): String
}

class MenuConsultas {
  -almacenC: VConsultas
  -gestorMascotas: VMascotas
  -entrada: Scanner
  --
  +MenuConsultas(consultas: VConsultas, gestorMascotas: VMascotas)
  +menuAdminConsultas(): void
  +leerDatos(): Consulta
  +getAlmacenC(): VConsultas
  +setAlmacenC(almacenC: VConsultas): void
  +getGestorMascotas(): VMascotas
  +setGestorMascotas(gestorMascotas: VMascotas): void
}

class VConsultas {
  -consultas: Consulta
  -ultimo: int
  --
  +VConsultas(tamañoMaximo: int)
  +replace(posicionTope: int, nuevaConsulta: Consulta): void
  +isEmpty(): boolean
  +isFull(): boolean
  +add(c: Consulta): void
  +delete(id: int): void
  +ordenar(): void
  +presentarUnaConsulta(id: int): String
  +presentarXFecha(fecha: LocalDate): String
  +presentarConsultasAtendidas(fecha: LocalDate): String
  +presentarTodasConsulta(): String
  +presentaConsultasMascota(id: int): String
  +presentarConsultasVeterinario(nombreVet: String): String
  +search(id: int): int
  +toString(): String
  +getConsultas(): Consulta[]
  +setConsultas(consultas: Consulta[]): void
  +getUltimo(): int
  +setUltimo(ultimo: int): void
}

class Mascota {
  -idMascota: int
  -numChip: int
  -nombre: String
  -raza: String
  -especie: String
  -color: String
  -genero: Genero
  -nacio: LocalDate
  -murio: LocalDate
  -numConsulta: int
  -owner: Owner
  --
  +Mascota()
  +Mascota(idMascota: int, numChip: int, nombre: String, raza: String, especie: String, color: String, genero: Genero, nacio: LocalDate, numConsulta: int, owner: Owner)
  +getIdMascota(): int
  +setIdMascota(idMascota: int): void
  +getNumChip(): int
  +setNumChip(numChip: int): void
  +getNombre(): String
  +setNombre(nombre: String): void
  +getRaza(): String
  +setRaza(raza: String): void
  +getEspecie(): String
  +setEspecie(especie: String): void
  +getColor(): String
  +setColor(color: String): void
  +getGenero(): Genero
  +setGenero(genero: Genero): void
  +getNacio(): LocalDate
  +setNacio(nacio: LocalDate): void
  +getMurio(): LocalDate
  +setMurio(murio: LocalDate): void
  +getNumConsulta(): int
  +setNumConsulta(numConsulta: int): void
  +getOwner(): Owner
  +setOwner(owner: Owner): void
  +calcularEdad(): int
  +contarConsultas(): int
  +aplicaDescuento(): boolean
  +reiniciarConsultas(): void
  +toString(): String
}

class MenuMascotas {
  -{static} sc: Scanner = new Scanner(System.in)
  -almacen: VMascotas
  -gestorConsultas: VConsultas
  --
  +MenuMascotas(almacen: VMascotas, gestorconsultas: VConsultas)
  +menuAdminMascota(): void
  -subMenuBusqueda(): void
  +{static} leerDatos(nombre: String, id: int, cons: int, vectorMasc: VMascotas): Mascota
  +{static} leerFecha(): LocalDate
  +{static} getSc(): Scanner
  +{static} setSc(sc: Scanner): void
  +getAlmacen(): VMascotas
  +setAlmacen(almacen: VMascotas): void
  +getGestorConsultas(): VConsultas
  +setGestorConsultas(gestorConsultas: VConsultas): void
}

class Owner {
  -nombre: String
  -paterno: String
  -materno: String
  -calle: String
  -colonia: String
  -ciudad: String
  -tel: String
  -mail: String
  -membresia: int
  --
  +Owner()
  +Owner(nombre: String, paterno: String, materno: String, calle: String, colonia: String, ciudad: String, tel: String, mail: String, membresia: int)
  +getNombre(): String
  +setNombre(nombre: String): void
  +getPaterno(): String
  +setPaterno(paterno: String): void
  +getMaterno(): String
  +setMaterno(materno: String): void
  +getCalle(): String
  +setCalle(calle: String): void
  +getColonia(): String
  +setColonia(colonia: String): void
  +getCiudad(): String
  +setCiudad(ciudad: String): void
  +getTel(): String
  +setTel(tel: String): void
  +getMail(): String
  +setMail(mail: String): void
  +getMembresia(): int
  +setMembresia(membresia: int): void
  +toString(): String
}

class VMascotas {
  -mascotas: Mascota
  -tope: int
  --
  +VMascotas(tamañoMaximo: int)
  +getMascotas(): Mascota[]
  +setMascotas(mascotas: Mascota[]): void
  +getTope(): int
  +getCapacidadMaxima(): int
  +toString(): String
  +add(mascota: Mascota): void
  +search(idMascota: int): int
  +buscarNombre(nombreMascota: String): Mascota
  +buscarEspecie(especie: String): String
  +buscarChip(numChip: int): int
  +buscarFechaNac(fecha: LocalDate): String
  +buscarOwner(idOwner: int): String
  +delete(idMascota: int): void
  +replace(posicionTope: int, nuevaMascota: Mascota): void
  +ordenar(): void
  +isEmpty(): boolean
  +isFull(): boolean
}

class Administrador {
  -puesto: String
  -salario: double
  --
  +Administrador(nombre: String, id: String, telefono: String, puesto: String, salario: double)
  +toString(): String
  +gestionarNomina(): void
}

class Cliente {
  -direccion: String
  -cantidadMascotas: int
  --
  +Cliente(nombre: String, id: String, telefono: String, direccion: String)
  +toString(): String
}

abstract class Persona {
  -nombre: String
  -id: String
  -telefono: String
  --
  +Persona(nombre: String, id: String, telefono: String)
  +getNombre(): String
  +getId(): String
  +toString(): String
}

class Recepcionista {
  -turno: String
  -extensionTelefonica: int
  --
  +Recepcionista(nombre: String, id: String, telefono: String, turno: String, extension: int)
  +getTurno(): String
  +setTurno(turno: String): void
  +toString(): String
}

class Veterinario {
  -especialidad: String
  -cedulaProfesional: String
  -enCirugia: boolean
  --
  +Veterinario(nombre: String, id: String, telefono: String, especialidad: String, cedula: String)
  +setEstadoCirugia(estado: boolean): void
  +toString(): String
}

interface Vector {
  ~add(elemento: T): void
  ~delete(index: int): void
  ~replace(index: int, nuevoElemento: T): void
  ~search(id: int): int
  ~isFull(): boolean
  ~isEmpty(): boolean
}

Cita *-- Mascota
Cita *-- Veterinario
MenuCitas *-- VCitas
MenuCitas *-- VMascotas
MenuCitas ..> Cita
VCitas ..|> Vector
VCitas *-- Cita
Consulta *-- Mascota
Consulta *-- Veterinario
MenuConsultas *-- VConsultas
MenuConsultas *-- VMascotas
MenuConsultas ..> Consulta
VConsultas ..|> Vector
VConsultas *-- Consulta
Mascota *-- Owner
MenuMascotas *-- VMascotas
MenuMascotas *-- VConsultas
MenuMascotas ..> Mascota
VMascotas ..|> Vector
VMascotas *-- Mascota
Administrador --|> Persona
Cliente --|> Persona
Recepcionista --|> Persona
Veterinario --|> Persona
@enduml